<svg width="40" height="36" viewBox="0 0 40 36" fill="none" xmlns="http://www.w3.org/2000/svg">
<path d="M25 26H30V24C30 23.3765 29.8057 22.7686 29.4441 22.2606C29.0826 21.7527 28.5718 21.37 27.9827 21.1658C27.3937 20.9615 26.7556 20.9459 26.1573 21.121C25.5589 21.2962 25.03 21.6534 24.644 22.143M25 26H15M25 26V24C25 23.344 24.874 22.717 24.644 22.143M24.644 22.143C24.2726 21.215 23.6318 20.4195 22.804 19.8591C21.9762 19.2988 20.9996 18.9993 20 18.9993C19.0004 18.9993 18.0238 19.2988 17.196 19.8591C16.3682 20.4195 15.7274 21.215 15.356 22.143M15 26H10V24C10 23.3765 10.1943 22.7686 10.5559 22.2606C10.9174 21.7527 11.4282 21.37 12.0173 21.1658C12.6063 20.9615 13.2444 20.9459 13.8427 21.121C14.4411 21.2962 14.97 21.6534 15.356 22.143M15 26V24C15 23.344 15.126 22.717 15.356 22.143M23 13C23 13.7956 22.6839 14.5587 22.1213 15.1213C21.5587 15.6839 20.7956 16 20 16C19.2044 16 18.4413 15.6839 17.8787 15.1213C17.3161 14.5587 17 13.7956 17 13C17 12.2044 17.3161 11.4413 17.8787 10.8787C18.4413 10.3161 19.2044 10 20 10C20.7956 10 21.5587 10.3161 22.1213 10.8787C22.6839 11.4413 23 12.2044 23 13ZM29 16C29 16.5304 28.7893 17.0391 28.4142 17.4142C28.0391 17.7893 27.5304 18 27 18C26.4696 18 25.9609 17.7893 25.5858 17.4142C25.2107 17.0391 25 16.5304 25 16C25 15.4696 25.2107 14.9609 25.5858 14.5858C25.9609 14.2107 26.4696 14 27 14C27.5304 14 28.0391 14.2107 28.4142 14.5858C28.7893 14.9609 29 15.4696 29 16ZM15 16C15 16.5304 14.7893 17.0391 14.4142 17.4142C14.0391 17.7893 13.5304 18 13 18C12.4696 18 11.9609 17.7893 11.5858 17.4142C11.2107 17.0391 11 16.5304 11 16C11 15.4696 11.2107 14.9609 11.5858 14.5858C11.9609 14.2107 12.4696 14 13 14C13.5304 14 14.0391 14.2107 14.4142 14.5858C14.7893 14.9609 15 15.4696 15 16Z" stroke="#8E92A2" stroke-width="2" stroke-linecap="round" stroke-linejoin="round"/>
</svg>
