<svg width="29" height="38" viewBox="0 0 29 38" fill="none" xmlns="http://www.w3.org/2000/svg">
<path d="M16 18V24M20 18V24M10 14H26M25 14L24.133 26.142C24.0971 26.6466 23.8713 27.1188 23.5011 27.4636C23.1309 27.8083 22.6439 28 22.138 28H13.862C13.3561 28 12.8691 27.8083 12.4989 27.4636C12.1287 27.1188 11.9029 26.6466 11.867 26.142L11 14H25ZM21 14V11C21 10.7348 20.8946 10.4804 20.7071 10.2929C20.5196 10.1054 20.2652 10 20 10H16C15.7348 10 15.4804 10.1054 15.2929 10.2929C15.1054 10.4804 15 10.7348 15 11V14H21Z" stroke="black" stroke-width="2" stroke-linecap="round" stroke-linejoin="round"/>
</svg>
