<svg width="39" height="36" viewBox="0 0 39 36" fill="none" xmlns="http://www.w3.org/2000/svg">
<path d="M18.7622 22L14.7622 18M14.7622 18L18.7622 14M14.7622 18H28.7622M23.7622 22V23C23.7622 23.7956 23.4461 24.5587 22.8835 25.1213C22.3209 25.6839 21.5579 26 20.7622 26H13.7622C12.9666 26 12.2035 25.6839 11.6409 25.1213C11.0783 24.5587 10.7622 23.7956 10.7622 23V13C10.7622 12.2044 11.0783 11.4413 11.6409 10.8787C12.2035 10.3161 12.9666 10 13.7622 10H20.7622C21.5579 10 22.3209 10.3161 22.8835 10.8787C23.4461 11.4413 23.7622 12.2044 23.7622 13V14" stroke="black" stroke-width="2" stroke-linecap="round" stroke-linejoin="round"/>
</svg>
