<svg width="39" height="38" viewBox="0 0 39 38" fill="none" xmlns="http://www.w3.org/2000/svg">
<path d="M10.9658 19L12.9658 17M12.9658 17L19.9658 10L26.9658 17M12.9658 17V27C12.9658 27.2652 13.0712 27.5196 13.2587 27.7071C13.4463 27.8946 13.7006 28 13.9658 28H16.9658M26.9658 17L28.9658 19M26.9658 17V27C26.9658 27.2652 26.8605 27.5196 26.6729 27.7071C26.4854 27.8946 26.231 28 25.9658 28H22.9658M16.9658 28C17.231 28 17.4854 27.8946 17.6729 27.7071C17.8605 27.5196 17.9658 27.2652 17.9658 27V23C17.9658 22.7348 18.0712 22.4804 18.2587 22.2929C18.4463 22.1054 18.7006 22 18.9658 22H20.9658C21.231 22 21.4854 22.1054 21.6729 22.2929C21.8605 22.4804 21.9658 22.7348 21.9658 23V27C21.9658 27.2652 22.0712 27.5196 22.2587 27.7071C22.4463 27.8946 22.7006 28 22.9658 28M16.9658 28H22.9658" stroke="#3D72FD" stroke-width="2" stroke-linecap="round" stroke-linejoin="round"/>
</svg>
