<svg width="38" height="38" viewBox="0 0 38 38" fill="none" xmlns="http://www.w3.org/2000/svg">
<path d="M20.8772 17.1228C20.127 16.373 19.1098 15.9517 18.0492 15.9517C16.9885 15.9517 15.9713 16.373 15.2212 17.1228L11.2212 21.1228C10.8391 21.4918 10.5344 21.9332 10.3247 22.4212C10.1151 22.9092 10.0048 23.4341 10.0002 23.9652C9.99554 24.4964 10.0967 25.0231 10.2979 25.5147C10.499 26.0062 10.796 26.4529 11.1716 26.8284C11.5471 27.204 11.9938 27.501 12.4853 27.7021C12.9769 27.9033 13.5036 28.0045 14.0348 27.9998C14.5659 27.9952 15.0908 27.8849 15.5788 27.6753C16.0668 27.4656 16.5082 27.1609 16.8772 26.7788L17.9792 25.6778M17.2212 20.7788C17.9713 21.5287 18.9885 21.95 20.0492 21.95C21.1098 21.95 22.127 21.5287 22.8772 20.7788L26.8772 16.7788C27.6058 16.0244 28.009 15.014 27.9998 13.9652C27.9907 12.9165 27.5701 11.9132 26.8284 11.1716C26.0868 10.4299 25.0835 10.0093 24.0348 10.0002C22.986 9.99104 21.9756 10.3942 21.2212 11.1228L20.1212 12.2228" stroke="black" stroke-width="2" stroke-linecap="round" stroke-linejoin="round"/>
</svg>
