<svg width="38" height="34" viewBox="0 0 38 34" fill="none" xmlns="http://www.w3.org/2000/svg">
<path d="M20 21V11C20 10.7348 19.8946 10.4804 19.7071 10.2929C19.5196 10.1054 19.2652 10 19 10H11C10.7348 10 10.4804 10.1054 10.2929 10.2929C10.1054 10.4804 10 10.7348 10 11V21C10 21.2652 10.1054 21.5196 10.2929 21.7071C10.4804 21.8946 10.7348 22 11 22H12M20 21C20 21.2652 19.8946 21.5196 19.7071 21.7071C19.5196 21.8946 19.2652 22 19 22H16M20 21V13C20 12.7348 20.1054 12.4804 20.2929 12.2929C20.4804 12.1054 20.7348 12 21 12H23.586C23.8512 12.0001 24.1055 12.1055 24.293 12.293L27.707 15.707C27.8946 15.8945 27.9999 16.1488 28 16.414V21C28 21.2652 27.8946 21.5196 27.7071 21.7071C27.5196 21.8946 27.2652 22 27 22H26M20 21C20 21.2652 20.1054 21.5196 20.2929 21.7071C20.4804 21.8946 20.7348 22 21 22H22M12 22C12 22.5304 12.2107 23.0391 12.5858 23.4142C12.9609 23.7893 13.4696 24 14 24C14.5304 24 15.0391 23.7893 15.4142 23.4142C15.7893 23.0391 16 22.5304 16 22M12 22C12 21.4696 12.2107 20.9609 12.5858 20.5858C12.9609 20.2107 13.4696 20 14 20C14.5304 20 15.0391 20.2107 15.4142 20.5858C15.7893 20.9609 16 21.4696 16 22M26 22C26 22.5304 25.7893 23.0391 25.4142 23.4142C25.0391 23.7893 24.5304 24 24 24C23.4696 24 22.9609 23.7893 22.5858 23.4142C22.2107 23.0391 22 22.5304 22 22M26 22C26 21.4696 25.7893 20.9609 25.4142 20.5858C25.0391 20.2107 24.5304 20 24 20C23.4696 20 22.9609 20.2107 22.5858 20.5858C22.2107 20.9609 22 21.4696 22 22" stroke="#8E92A2" stroke-width="2" stroke-linecap="round" stroke-linejoin="round"/>
</svg>
